<svg width="25" height="24" viewBox="0 0 25 24" fill="none" xmlns="http://www.w3.org/2000/svg">
<g clip-path="url(#clip0_12_58)">
<path d="M0.0158691 12C0.0158691 17.123 3.22687 21.497 7.74587 23.218C7.63587 22.281 7.51887 20.736 7.77087 19.652C7.98787 18.72 9.17187 13.714 9.17187 13.714C9.17187 13.714 8.81487 12.999 8.81487 11.94C8.81487 10.28 9.77687 9.04 10.9759 9.04C11.9959 9.04 12.4879 9.805 12.4879 10.722C12.4879 11.747 11.8349 13.279 11.4979 14.7C11.2169 15.889 12.0949 16.859 13.2669 16.859C15.3899 16.859 17.0229 14.62 17.0229 11.388C17.0229 8.527 14.9669 6.528 12.0319 6.528C8.63387 6.528 6.63887 9.077 6.63887 11.712C6.63887 12.739 7.03387 13.839 7.52787 14.438C7.56998 14.4832 7.59974 14.5386 7.61428 14.5986C7.62882 14.6587 7.62764 14.7215 7.61087 14.781C7.51987 15.159 7.31787 15.97 7.27887 16.136C7.22587 16.354 7.10587 16.401 6.87887 16.295C5.38687 15.601 4.45487 13.42 4.45487 11.668C4.45487 7.899 7.19187 4.439 12.3469 4.439C16.4909 4.439 19.7119 7.392 19.7119 11.338C19.7119 15.455 17.1169 18.769 13.5129 18.769C12.3019 18.769 11.1649 18.139 10.7749 17.396C10.7749 17.396 10.1759 19.678 10.0309 20.236C9.74887 21.32 8.96687 22.692 8.48187 23.471C9.59987 23.815 10.7859 24 12.0159 24C18.6429 24 24.0159 18.627 24.0159 12C24.0159 5.373 18.6429 0 12.0159 0C5.38887 0 0.0158691 5.373 0.0158691 12Z" fill="#DFDFD6"/>
</g>
<defs>
<clipPath id="clip0_12_58">
<rect width="24" height="24" fill="white" transform="translate(0.0158691)"/>
</clipPath>
</defs>
</svg>
