<svg width="25" height="22" viewBox="0 0 25 22" fill="none" xmlns="http://www.w3.org/2000/svg">
<path d="M6.76851 21.6605C8.7401 21.7264 10.7049 21.3965 12.5468 20.6902C14.3887 19.9839 16.0704 18.9155 17.4924 17.5482C18.9144 16.1809 20.0478 14.5424 20.8258 12.7296C21.6038 10.9168 22.0105 8.96646 22.0218 6.99379C22.9254 5.87568 23.5963 4.58823 23.9952 3.20713C24.0249 3.09801 24.0225 2.98261 23.9883 2.87482C23.954 2.76704 23.8892 2.67147 23.8019 2.59961C23.7145 2.52776 23.6083 2.48269 23.4959 2.46983C23.3835 2.45697 23.2698 2.47687 23.1685 2.52713C22.6958 2.75466 22.1636 2.82816 21.647 2.73727C21.1303 2.64637 20.6552 2.39566 20.2885 2.02046C19.8204 1.5079 19.2543 1.0945 18.6235 0.804762C17.9927 0.515025 17.3102 0.354842 16.6164 0.333704C15.9226 0.312567 15.2317 0.430906 14.5844 0.681708C13.9372 0.932511 13.3469 1.31067 12.8485 1.79379C12.1661 2.45467 11.6663 3.28085 11.3976 4.19203C11.1289 5.10321 11.1005 6.0684 11.3152 6.99379C6.84851 7.26046 3.78184 5.14046 1.32851 2.23379C1.2548 2.15033 1.15839 2.09013 1.05104 2.06055C0.943695 2.03097 0.830057 2.03329 0.724006 2.06723C0.617955 2.10117 0.524081 2.16525 0.453847 2.25165C0.383614 2.33806 0.34006 2.44305 0.328506 2.55379C-0.138868 5.14636 0.198278 7.81986 1.29466 10.2152C2.39105 12.6106 4.19416 14.6131 6.46184 15.9538C4.94136 17.6976 2.80612 18.7867 0.501839 18.9938C0.378389 19.0143 0.264428 19.0728 0.175908 19.1613C0.087387 19.2497 0.0287365 19.3636 0.0081642 19.4871C-0.0124081 19.6105 0.00612757 19.7373 0.0611771 19.8497C0.116227 19.962 0.205035 20.0544 0.315172 20.1138C2.31987 21.1156 4.52748 21.6447 6.76851 21.6605Z" fill="#DFDFD6"/>
</svg>
